ffmpeg started on 2016-12-12 at 09:43:46
Report written to "Output/theora/results/ffmpeg/sintel12000k.log"
Command line:
Tools/ffmpeg/ffmpeg -benchmark -y -i Input/y4m/sintel.y4m -c:v libtheora -b:v 12000k -an Output/theora/encoded/sintel12000k.mkv
ffmpeg version N-82227-gdb23fde Copyright (c) 2000-2016 the FFmpeg developers
  built with gcc 5.4.0 (Ubuntu 5.4.0-6ubuntu1~16.04.2) 20160609
  configuration: --prefix=/home/jaroslav/ffmpeg_build --pkg-config-flags=--static --extra-cflags=-I/home/jaroslav/ffmpeg_build/include --extra-ldflags=-L/home/jaroslav/ffmpeg_build/lib --bindir=/home/jaroslav/bin --enable-gpl --enable-libass --enable-libfdk-aac --enable-libfreetype --enable-libmp3lame --enable-libopus --enable-libtheora --enable-libvorbis --enable-libvpx --enable-libx264 --enable-libx265 --enable-nvenc --enable-libmfx --enable-libxvid --enable-libgsm --enable-libopencore-amrnb --enable-version3 --enable-nonfree
  libavutil      55. 35.100 / 55. 35.100
  libavcodec     57. 66.101 / 57. 66.101
  libavformat    57. 57.100 / 57. 57.100
  libavdevice    57.  2.100 / 57.  2.100
  libavfilter     6. 66.100 /  6. 66.100
  libswscale      4.  3.100 /  4.  3.100
  libswresample   2.  4.100 /  2.  4.100
  libpostproc    54.  2.100 / 54.  2.100
Input #0, yuv4mpegpipe, from 'Input/y4m/sintel.y4m':
  Duration: 00:00:20.83, start: 0.000000, bitrate: 2057307 kb/s
    Stream #0:0: Video: rawvideo (I420 / 0x30323449), yuv420p(progressive), 4096x1744, SAR 1:1 DAR 256:109, 24 fps, 24 tbr, 24 tbn, 24 tbc
Output #0, matroska, to 'Output/theora/encoded/sintel12000k.mkv':
  Metadata:
    encoder         : Lavf57.57.100
    Stream #0:0: Video: theora (libtheora) (theo / 0x6F656874), yuv420p, 4096x1744 [SAR 1:1 DAR 256:109], q=2-31, 12000 kb/s, 24 fps, 1k tbn, 24 tbc
    Metadata:
      encoder         : Lavc57.66.101 libtheora
Stream mapping:
  Stream #0:0 -> #0:0 (rawvideo (native) -> theora (libtheora))
Press [q] to stop, [?] for help
frame=    3 fps=1.8 q=-0.0 size=       4kB time=00:00:00.08 bitrate= 380.5kbits/s speed=0.0511x    frame=    5 fps=2.1 q=-0.0 size=       4kB time=00:00:00.16 bitrate= 190.2kbits/s speed=0.0718x    frame=    7 fps=2.3 q=-0.0 size=       4kB time=00:00:00.25 bitrate= 127.3kbits/s speed=0.0838x    frame=    9 fps=2.5 q=-0.0 size=       4kB time=00:00:00.33 bitrate=  95.7kbits/s speed=0.0921x    frame=   11 fps=2.6 q=-0.0 size=       4kB time=00:00:00.41 bitrate=  76.5kbits/s speed=0.098x    frame=   13 fps=2.7 q=-0.0 size=     801kB time=00:00:00.50 bitrate=13101.9kbits/s speed=0.102x    frame=   16 fps=2.8 q=-0.0 size=     801kB time=00:00:00.62 bitrate=10485.7kbits/s speed=0.109x    frame=   18 fps=1.8 q=-0.0 size=     801kB time=00:00:00.70 bitrate=9258.2kbits/s speed=0.0718x    frame=   19 fps=1.4 q=-0.0 size=     801kB time=00:00:00.75 bitrate=8740.4kbits/s speed=0.0571x    frame=   21 fps=1.5 q=-0.0 size=     801kB time=00:00:00.83 bitrate=7870.6kbits/s speed=0.0604x    frame=   23 fps=1.6 q=-0.0 size=     801kB time=00:00:00.91 bitrate=7150.4kbits/s speed=0.0636x    frame=   25 fps=1.7 q=-0.0 size=    1555kB time=00:00:01.00 bitrate=12724.9kbits/s speed=0.0663x    frame=   28 fps=1.8 q=-0.0 size=    1555kB time=00:00:01.12 bitrate=11312.2kbits/s speed=0.071x    frame=   30 fps=1.8 q=-0.0 size=    1555kB time=00:00:01.20 bitrate=10535.6kbits/s speed=0.0733x    frame=   32 fps=1.8 q=-0.0 size=    1555kB time=00:00:01.29 bitrate=9851.2kbits/s speed=0.074x    frame=   34 fps=1.9 q=-0.0 size=    1555kB time=00:00:01.37 bitrate=9257.0kbits/s speed=0.0759x    frame=   36 fps=1.9 q=-0.0 size=    1555kB time=00:00:01.45 bitrate=8730.4kbits/s speed=0.0761x    frame=   39 fps=2.0 q=-0.0 size=    2204kB time=00:00:01.58 bitrate=11400.9kbits/s speed=0.0793x    frame=   41 fps=2.0 q=-0.0 size=    2204kB time=00:00:01.66 bitrate=10826.7kbits/s speed=0.0809x    frame=   43 fps=2.0 q=-0.0 size=    2204kB time=00:00:01.75 bitrate=10313.5kbits/s speed=0.0823x    frame=   45 fps=2.1 q=-0.0 size=    2204kB time=00:00:01.83 bitrate=9846.8kbits/s speed=0.0837x    frame=   47 fps=2.1 q=-0.0 size=    2204kB time=00:00:01.91 bitrate=9415.5kbits/s speed=0.0851x    frame=   49 fps=2.1 q=-0.0 size=    2893kB time=00:00:02.00 bitrate=11843.4kbits/s speed=0.0863x    frame=   52 fps=2.2 q=-0.0 size=    2893kB time=00:00:02.12 bitrate=11147.1kbits/s speed=0.0886x    frame=   54 fps=2.2 q=-0.0 size=    2893kB time=00:00:02.20 bitrate=10728.2kbits/s speed=0.0896x    frame=   56 fps=2.2 q=-0.0 size=    2893kB time=00:00:02.29 bitrate=10335.2kbits/s speed=0.0906x    frame=   58 fps=2.2 q=-0.0 size=    2893kB time=00:00:02.37 bitrate=9974.2kbits/s speed=0.0915x    frame=   60 fps=2.3 q=-0.0 size=    2893kB time=00:00:02.45 bitrate=9637.5kbits/s speed=0.0924x    frame=   63 fps=2.3 q=-0.0 size=    3741kB time=00:00:02.58 bitrate=11860.4kbits/s speed=0.0942x    frame=   65 fps=2.3 q=-0.0 size=    3741kB time=00:00:02.66 bitrate=11487.0kbits/s speed=0.095x    frame=   67 fps=2.3 q=-0.0 size=    4121kB time=00:00:02.75 bitrate=12271.8kbits/s speed=0.0953x    frame=   69 fps=2.3 q=-0.0 size=    4224kB time=00:00:02.83 bitrate=12210.8kbits/s speed=0.0955x    frame=   71 fps=2.3 q=-0.0 size=    4331kB time=00:00:02.91 bitrate=12158.5kbits/s speed=0.0957x    frame=   73 fps=2.3 q=-0.0 size=    4439kB time=00:00:03.00 bitrate=12116.8kbits/s speed=0.0959x    frame=   74 fps=2.3 q=-0.0 size=    4439kB time=00:00:03.04 bitrate=11949.6kbits/s speed=0.0956x    frame=   76 fps=2.3 q=-0.0 size=    4581kB time=00:00:03.12 bitrate=12005.5kbits/s speed=0.0961x    frame=   78 fps=2.3 q=-0.0 size=    4676kB time=00:00:03.20 bitrate=11937.9kbits/s speed=0.0963x    frame=   80 fps=2.3 q=-0.0 size=    4779kB time=00:00:03.29 bitrate=11888.1kbits/s speed=0.0965x    frame=   82 fps=2.3 q=-0.0 size=    4882kB time=00:00:03.37 bitrate=11847.3kbits/s speed=0.0966x    frame=   84 fps=2.3 q=-0.0 size=    4996kB time=00:00:03.45 bitrate=11833.0kbits/s speed=0.0967x    frame=   86 fps=2.4 q=-0.0 size=    5110kB time=00:00:03.54 bitrate=11815.3kbits/s speed=0.0969x    frame=   88 fps=2.4 q=-0.0 size=    5218kB time=00:00:03.62 bitrate=11788.2kbits/s speed=0.097x    frame=   90 fps=2.4 q=-0.0 size=    5335kB time=00:00:03.70 bitrate=11784.1kbits/s speed=0.0971x    frame=   92 fps=2.4 q=-0.0 size=    5462kB time=00:00:03.79 bitrate=11796.3kbits/s speed=0.0972x    frame=   94 fps=2.4 q=-0.0 size=    5527kB time=00:00:03.87 bitrate=11681.3kbits/s speed=0.0973x    frame=   96 fps=2.4 q=-0.0 size=    5645kB time=00:00:03.95 bitrate=11681.2kbits/s speed=0.0975x    frame=   98 fps=2.4 q=-0.0 size=    5833kB time=00:00:04.04 bitrate=11819.7kbits/s speed=0.0978x    frame=  100 fps=2.4 q=-0.0 size=    5833kB time=00:00:04.12 bitrate=11581.9kbits/s speed=0.0981x    frame=  102 fps=2.4 q=-0.0 size=    5833kB time=00:00:04.20 bitrate=11353.5kbits/s speed=0.0985x    frame=  104 fps=2.4 q=-0.0 size=    5833kB time=00:00:04.29 bitrate=11131.4kbits/s speed=0.099x    frame=  106 fps=2.4 q=-0.0 size=    5833kB time=00:00:04.37 bitrate=10920.2kbits/s speed=0.0994x    frame=  108 fps=2.4 q=-0.0 size=    5833kB time=00:00:04.45 bitrate=10717.0kbits/s speed=0.0998x    frame=  110 fps=2.4 q=-0.0 size=    6562kB time=00:00:04.54 bitrate=11833.6kbits/s speed= 0.1x    frame=  113 fps=2.4 q=-0.0 size=    6691kB time=00:00:04.66 bitrate=11742.4kbits/s speed=0.101x    frame=  115 fps=2.5 q=-0.0 size=    6691kB time=00:00:04.75 bitrate=11537.2kbits/s speed=0.101x    frame=  117 fps=2.5 q=-0.0 size=    6925kB time=00:00:04.83 bitrate=11735.3kbits/s speed=0.101x    frame=  119 fps=2.5 q=-0.0 size=    6925kB time=00:00:04.91 bitrate=11534.8kbits/s speed=0.102x    frame=  121 fps=2.5 q=-0.0 size=    6925kB time=00:00:05.00 bitrate=11343.4kbits/s speed=0.102x    frame=  123 fps=2.5 q=-0.0 size=    6925kB time=00:00:05.08 bitrate=11158.2kbits/s speed=0.103x    frame=  125 fps=2.5 q=-0.0 size=    7586kB time=00:00:05.16 bitrate=12024.9kbits/s speed=0.103x    frame=  127 fps=2.5 q=-0.0 size=    7762kB time=00:00:05.25 bitrate=12109.6kbits/s speed=0.103x    frame=  129 fps=2.5 q=-0.0 size=    7946kB time=00:00:05.33 bitrate=12202.8kbits/s speed=0.103x    frame=  131 fps=2.5 q=-0.0 size=    8139kB time=00:00:05.41 bitrate=12305.7kbits/s speed=0.103x    frame=  133 fps=2.5 q=-0.0 size=    8350kB time=00:00:05.50 bitrate=12434.9kbits/s speed=0.103x    frame=  135 fps=2.5 q=-0.0 size=    8558kB time=00:00:05.58 bitrate=12555.7kbits/s speed=0.102x    frame=  137 fps=2.5 q=-0.0 size=    8764kB time=00:00:05.66 bitrate=12666.3kbits/s speed=0.102x    frame=  139 fps=2.5 q=-0.0 size=    8964kB time=00:00:05.75 bitrate=12768.4kbits/s speed=0.102x    frame=  141 fps=2.5 q=-0.0 size=    8964kB time=00:00:05.83 bitrate=12586.7kbits/s speed=0.102x    frame=  143 fps=2.5 q=-0.0 size=    8964kB time=00:00:05.91 bitrate=12408.0kbits/s speed=0.102x    frame=  145 fps=2.5 q=-0.0 size=    8964kB time=00:00:06.00 bitrate=12236.4kbits/s speed=0.103x    frame=  147 fps=2.5 q=-0.0 size=    8964kB time=00:00:06.08 bitrate=12069.5kbits/s speed=0.103x    frame=  149 fps=2.5 q=-0.0 size=    8964kB time=00:00:06.16 bitrate=11905.1kbits/s speed=0.103x    frame=  151 fps=2.5 q=-0.0 size=    9713kB time=00:00:06.25 bitrate=12728.5kbits/s speed=0.103x    frame=  154 fps=2.5 q=-0.0 size=    9713kB time=00:00:06.37 bitrate=12479.0kbits/s speed=0.104x    frame=  156 fps=2.5 q=-0.0 size=    9713kB time=00:00:06.45 bitrate=12318.6kbits/s speed=0.105x    frame=  158 fps=2.5 q=-0.0 size=   10001kB time=00:00:06.54 bitrate=12521.2kbits/s speed=0.105x    frame=  160 fps=2.5 q=-0.0 size=   10001kB time=00:00:06.62 bitrate=12364.4kbits/s speed=0.105x    frame=  162 fps=2.5 q=-0.0 size=   10191kB time=00:00:06.70 bitrate=12443.2kbits/s speed=0.105x    frame=  164 fps=2.5 q=-0.0 size=   10374kB time=00:00:06.79 bitrate=12510.7kbits/s speed=0.105x    frame=  166 fps=2.5 q=-0.0 size=   10514kB time=00:00:06.87 bitrate=12526.0kbits/s speed=0.105x    frame=  168 fps=2.5 q=-0.0 size=   10653kB time=00:00:06.95 bitrate=12540.7kbits/s speed=0.105x    frame=  170 fps=2.5 q=-0.0 size=   10792kB time=00:00:07.04 bitrate=12552.8kbits/s speed=0.105x    frame=  172 fps=2.5 q=-0.0 size=   10930kB time=00:00:07.12 bitrate=12565.3kbits/s speed=0.105x    frame=  174 fps=2.5 q=-0.0 size=   11066kB time=00:00:07.20 bitrate=12574.8kbits/s speed=0.105x    frame=  176 fps=2.5 q=-0.0 size=   11203kB time=00:00:07.29 bitrate=12584.4kbits/s speed=0.104x    frame=  178 fps=2.5 q=-0.0 size=   11333kB time=00:00:07.37 bitrate=12586.2kbits/s speed=0.104x    frame=  180 fps=2.5 q=-0.0 size=   11458kB time=00:00:07.45 bitrate=12583.6kbits/s speed=0.104x    frame=  182 fps=2.5 q=-0.0 size=   11585kB time=00:00:07.54 bitrate=12581.7kbits/s speed=0.104x    frame=  184 fps=2.5 q=-0.0 size=   11716kB time=00:00:07.62 bitrate=12586.0kbits/s speed=0.104x    frame=  186 fps=2.5 q=-0.0 size=   11716kB time=00:00:07.70 bitrate=12450.5kbits/s speed=0.104x    frame=  188 fps=2.5 q=-0.0 size=   11716kB time=00:00:07.79 bitrate=12316.3kbits/s speed=0.105x    frame=  190 fps=2.5 q=-0.0 size=   11716kB time=00:00:07.87 bitrate=12186.5kbits/s speed=0.105x    frame=  192 fps=2.5 q=-0.0 size=   11716kB time=00:00:07.95 bitrate=12059.4kbits/s speed=0.105x    frame=  194 fps=2.5 q=-0.0 size=   12327kB time=00:00:08.04 bitrate=12555.0kbits/s speed=0.105x    frame=  196 fps=2.5 q=-0.0 size=   12471kB time=00:00:08.12 bitrate=12572.6kbits/s speed=0.105x    frame=  198 fps=2.5 q=-0.0 size=   12615kB time=00:00:08.20 bitrate=12588.5kbits/s speed=0.105x    frame=  200 fps=2.5 q=-0.0 size=   12763kB time=00:00:08.29 bitrate=12607.6kbits/s speed=0.105x    frame=  202 fps=2.5 q=-0.0 size=   12931kB time=00:00:08.37 bitrate=12647.2kbits/s speed=0.105x    frame=  204 fps=2.5 q=-0.0 size=   13108kB time=00:00:08.45 bitrate=12694.0kbits/s speed=0.105x    frame=  206 fps=2.5 q=-0.0 size=   13279kB time=00:00:08.54 bitrate=12733.9kbits/s speed=0.105x    frame=  208 fps=2.5 q=-0.0 size=   13454kB time=00:00:08.62 bitrate=12777.2kbits/s speed=0.105x    frame=  210 fps=2.5 q=-0.0 size=   13542kB time=00:00:08.70 bitrate=12738.4kbits/s speed=0.105x    frame=  212 fps=2.5 q=-0.0 size=   13542kB time=00:00:08.79 bitrate=12616.7kbits/s speed=0.105x    frame=  214 fps=2.5 q=-0.0 size=   13542kB time=00:00:08.87 bitrate=12498.7kbits/s speed=0.105x    frame=  216 fps=2.5 q=-0.0 size=   13542kB time=00:00:08.95 bitrate=12382.9kbits/s speed=0.105x    frame=  218 fps=2.5 q=-0.0 size=   13542kB time=00:00:09.04 bitrate=12267.9kbits/s speed=0.105x    frame=  220 fps=2.5 q=-0.0 size=   13542kB time=00:00:09.12 bitrate=12156.3kbits/s speed=0.105x    frame=  223 fps=2.6 q=-0.0 size=   14304kB time=00:00:09.25 bitrate=12666.4kbits/s speed=0.106x    frame=  225 fps=2.6 q=-0.0 size=   14304kB time=00:00:09.33 bitrate=12553.8kbits/s speed=0.106x    frame=  227 fps=2.6 q=-0.0 size=   14304kB time=00:00:09.41 bitrate=12441.8kbits/s speed=0.106x    frame=  229 fps=2.6 q=-0.0 size=   14304kB time=00:00:09.50 bitrate=12333.1kbits/s speed=0.107x    frame=  231 fps=2.6 q=-0.0 size=   14304kB time=00:00:09.58 bitrate=12226.3kbits/s speed=0.107x    frame=  233 fps=2.6 q=-0.0 size=   14798kB time=00:00:09.66 bitrate=12538.6kbits/s speed=0.107x    frame=  236 fps=2.6 q=-0.0 size=   14798kB time=00:00:09.79 bitrate=12378.5kbits/s speed=0.107x    frame=  238 fps=2.6 q=-0.0 size=   14798kB time=00:00:09.87 bitrate=12274.5kbits/s speed=0.108x    frame=  240 fps=2.6 q=-0.0 size=   14798kB time=00:00:09.95 bitrate=12172.2kbits/s speed=0.108x    frame=  242 fps=2.6 q=-0.0 size=   15498kB time=00:00:10.04 bitrate=12641.8kbits/s speed=0.108x    frame=  244 fps=2.6 q=-0.0 size=   15498kB time=00:00:10.12 bitrate=12538.2kbits/s speed=0.108x    frame=  246 fps=2.6 q=-0.0 size=   15498kB time=00:00:10.20 bitrate=12436.3kbits/s speed=0.108x    frame=  248 fps=2.6 q=-0.0 size=   15498kB time=00:00:10.29 bitrate=12334.8kbits/s speed=0.108x    frame=  250 fps=2.6 q=-0.0 size=   15498kB time=00:00:10.37 bitrate=12236.1kbits/s speed=0.108x    frame=  252 fps=2.6 q=-0.0 size=   15498kB time=00:00:10.45 bitrate=12139.0kbits/s speed=0.108x    frame=  254 fps=2.6 q=-0.0 size=   16203kB time=00:00:10.54 bitrate=12589.8kbits/s speed=0.109x    frame=  257 fps=2.6 q=-0.0 size=   16203kB time=00:00:10.66 bitrate=12442.3kbits/s speed=0.109x    frame=  259 fps=2.6 q=-0.0 size=   16203kB time=00:00:10.75 bitrate=12346.3kbits/s speed=0.109x    frame=  261 fps=2.6 q=-0.0 size=   16203kB time=00:00:10.83 bitrate=12251.7kbits/s speed=0.109x    frame=  263 fps=2.6 q=-0.0 size=   16203kB time=00:00:10.91 bitrate=12157.4kbits/s speed=0.11x    frame=  265 fps=2.6 q=-0.0 size=   16203kB time=00:00:11.00 bitrate=12065.7kbits/s speed=0.11x    frame=  266 fps=2.6 q=-0.0 size=   16693kB time=00:00:11.04 bitrate=12383.5kbits/s speed=0.11x    frame=  269 fps=2.6 q=-0.0 size=   16693kB time=00:00:11.16 bitrate=12244.9kbits/s speed=0.11x    frame=  271 fps=2.7 q=-0.0 size=   16693kB time=00:00:11.25 bitrate=12154.5kbits/s speed=0.11x    frame=  273 fps=2.7 q=-0.0 size=   16693kB time=00:00:11.33 bitrate=12065.5kbits/s speed=0.11x    frame=  275 fps=2.7 q=-0.0 size=   16693kB time=00:00:11.41 bitrate=11976.8kbits/s speed=0.11x    frame=  277 fps=2.7 q=-0.0 size=   16693kB time=00:00:11.50 bitrate=11890.3kbits/s speed=0.11x    frame=  279 fps=2.7 q=-0.0 size=   17227kB time=00:00:11.58 bitrate=12182.8kbits/s speed=0.111x    frame=  281 fps=2.7 q=-0.0 size=   17227kB time=00:00:11.66 bitrate=12095.1kbits/s speed=0.111x    frame=  283 fps=2.7 q=-0.0 size=   17227kB time=00:00:11.75 bitrate=12009.7kbits/s speed=0.111x    frame=  285 fps=2.7 q=-0.0 size=   17227kB time=00:00:11.83 bitrate=11925.4kbits/s speed=0.111x    frame=  287 fps=2.7 q=-0.0 size=   17227kB time=00:00:11.91 bitrate=11841.4kbits/s speed=0.111x    frame=  289 fps=2.7 q=-0.0 size=   17227kB time=00:00:12.00 bitrate=11759.5kbits/s speed=0.111x    frame=  291 fps=2.7 q=-0.0 size=   17979kB time=00:00:12.08 bitrate=12188.0kbits/s speed=0.111x    frame=  293 fps=2.7 q=-0.0 size=   17979kB time=00:00:12.16 bitrate=12103.9kbits/s speed=0.111x    frame=  295 fps=2.7 q=-0.0 size=   17979kB time=00:00:12.25 bitrate=12021.9kbits/s speed=0.111x    frame=  297 fps=2.7 q=-0.0 size=   17979kB time=00:00:12.33 bitrate=11941.0kbits/s speed=0.111x    frame=  299 fps=2.7 q=-0.0 size=   17979kB time=00:00:12.41 bitrate=11860.2kbits/s speed=0.111x    frame=  301 fps=2.7 q=-0.0 size=   17979kB time=00:00:12.50 bitrate=11781.5kbits/s speed=0.111x    frame=  303 fps=2.7 q=-0.0 size=   18597kB time=00:00:12.58 bitrate=12106.1kbits/s speed=0.112x    frame=  305 fps=2.7 q=-0.0 size=   18597kB time=00:00:12.66 bitrate=12025.8kbits/s speed=0.112x    frame=  307 fps=2.7 q=-0.0 size=   18597kB time=00:00:12.75 bitrate=11947.5kbits/s speed=0.111x    frame=  309 fps=2.7 q=-0.0 size=   18597kB time=00:00:12.83 bitrate=11870.3kbits/s speed=0.111x    frame=  311 fps=2.7 q=-0.0 size=   18597kB time=00:00:12.91 bitrate=11793.1kbits/s speed=0.111x    frame=  313 fps=2.7 q=-0.0 size=   18597kB time=00:00:13.00 bitrate=11717.8kbits/s speed=0.112x    frame=  315 fps=2.7 q=-0.0 size=   19258kB time=00:00:13.08 bitrate=12057.5kbits/s speed=0.112x    frame=  317 fps=2.7 q=-0.0 size=   19258kB time=00:00:13.16 bitrate=11980.6kbits/s speed=0.112x    frame=  319 fps=2.7 q=-0.0 size=   19258kB time=00:00:13.25 bitrate=11905.5kbits/s speed=0.112x    frame=  321 fps=2.7 q=-0.0 size=   19258kB time=00:00:13.33 bitrate=11831.4kbits/s speed=0.112x    frame=  323 fps=2.7 q=-0.0 size=   19258kB time=00:00:13.41 bitrate=11757.4kbits/s speed=0.112x    frame=  325 fps=2.7 q=-0.0 size=   19258kB time=00:00:13.50 bitrate=11685.1kbits/s speed=0.112x    frame=  327 fps=2.7 q=-0.0 size=   20022kB time=00:00:13.58 bitrate=12074.7kbits/s speed=0.112x    frame=  329 fps=2.7 q=-0.0 size=   20022kB time=00:00:13.66 bitrate=12000.5kbits/s speed=0.112x    frame=  331 fps=2.7 q=-0.0 size=   20022kB time=00:00:13.75 bitrate=11928.1kbits/s speed=0.112x    frame=  333 fps=2.7 q=-0.0 size=   20022kB time=00:00:13.83 bitrate=11856.5kbits/s speed=0.112x    frame=  335 fps=2.7 q=-0.0 size=   20022kB time=00:00:13.91 bitrate=11785.0kbits/s speed=0.112x    frame=  337 fps=2.7 q=-0.0 size=   20022kB time=00:00:14.00 bitrate=11715.1kbits/s speed=0.112x    frame=  339 fps=2.7 q=-0.0 size=   20755kB time=00:00:14.08 bitrate=12072.1kbits/s speed=0.112x    frame=  341 fps=2.7 q=-0.0 size=   20755kB time=00:00:14.16 bitrate=12000.5kbits/s speed=0.112x    frame=  343 fps=2.7 q=-0.0 size=   20755kB time=00:00:14.25 bitrate=11930.6kbits/s speed=0.113x    frame=  345 fps=2.7 q=-0.0 size=   20755kB time=00:00:14.33 bitrate=11861.5kbits/s speed=0.113x    frame=  347 fps=2.7 q=-0.0 size=   20755kB time=00:00:14.41 bitrate=11792.4kbits/s speed=0.113x    frame=  349 fps=2.7 q=-0.0 size=   20755kB time=00:00:14.50 bitrate=11724.9kbits/s speed=0.113x    frame=  351 fps=2.7 q=-0.0 size=   21458kB time=00:00:14.58 bitrate=12053.4kbits/s speed=0.113x    frame=  353 fps=2.7 q=-0.0 size=   21458kB time=00:00:14.66 bitrate=11984.4kbits/s speed=0.113x    frame=  355 fps=2.7 q=-0.0 size=   21458kB time=00:00:14.75 bitrate=11917.0kbits/s speed=0.113x    frame=  357 fps=2.7 q=-0.0 size=   21458kB time=00:00:14.83 bitrate=11850.3kbits/s speed=0.113x    frame=  359 fps=2.7 q=-0.0 size=   21458kB time=00:00:14.91 bitrate=11783.6kbits/s speed=0.113x    frame=  361 fps=2.7 q=-0.0 size=   21458kB time=00:00:15.00 bitrate=11718.4kbits/s speed=0.113x    frame=  363 fps=2.7 q=-0.0 size=   22493kB time=00:00:15.08 bitrate=12215.5kbits/s speed=0.113x    frame=  364 fps=2.7 q=-0.0 size=   22493kB time=00:00:15.12 bitrate=12181.6kbits/s speed=0.113x    frame=  366 fps=2.7 q=-0.0 size=   22493kB time=00:00:15.20 bitrate=12115.1kbits/s speed=0.113x    frame=  368 fps=2.7 q=-0.0 size=   22493kB time=00:00:15.29 bitrate=12048.6kbits/s speed=0.113x    frame=  370 fps=2.7 q=-0.0 size=   22493kB time=00:00:15.37 bitrate=11983.6kbits/s speed=0.113x    frame=  372 fps=2.7 q=-0.0 size=   22493kB time=00:00:15.45 bitrate=11919.2kbits/s speed=0.113x    frame=  374 fps=2.7 q=-0.0 size=   22493kB time=00:00:15.54 bitrate=11854.8kbits/s speed=0.113x    frame=  376 fps=2.7 q=-0.0 size=   23210kB time=00:00:15.62 bitrate=12168.0kbits/s speed=0.113x    frame=  378 fps=2.7 q=-0.0 size=   23210kB time=00:00:15.70 bitrate=12103.7kbits/s speed=0.113x    frame=  380 fps=2.7 q=-0.0 size=   23210kB time=00:00:15.79 bitrate=12039.3kbits/s speed=0.113x    frame=  382 fps=2.7 q=-0.0 size=   23210kB time=00:00:15.87 bitrate=11976.4kbits/s speed=0.113x    frame=  384 fps=2.7 q=-0.0 size=   23210kB time=00:00:15.95 bitrate=11914.1kbits/s speed=0.113x    frame=  386 fps=2.7 q=-0.0 size=   23210kB time=00:00:16.04 bitrate=11851.7kbits/s speed=0.113x    frame=  388 fps=2.7 q=-0.0 size=   23853kB time=00:00:16.12 bitrate=12117.3kbits/s speed=0.114x    frame=  390 fps=2.7 q=-0.0 size=   23853kB time=00:00:16.20 bitrate=12055.3kbits/s speed=0.114x    frame=  392 fps=2.7 q=-0.0 size=   23853kB time=00:00:16.29 bitrate=11993.1kbits/s speed=0.113x    frame=  394 fps=2.7 q=-0.0 size=   23853kB time=00:00:16.37 bitrate=11932.4kbits/s speed=0.113x    frame=  396 fps=2.7 q=-0.0 size=   23853kB time=00:00:16.45 bitrate=11872.2kbits/s speed=0.113x    frame=  398 fps=2.7 q=-0.0 size=   23853kB time=00:00:16.54 bitrate=11811.9kbits/s speed=0.113x    frame=  400 fps=2.7 q=-0.0 size=   24917kB time=00:00:16.62 bitrate=12277.1kbits/s speed=0.114x    frame=  402 fps=2.7 q=-0.0 size=   24917kB time=00:00:16.70 bitrate=12216.2kbits/s speed=0.114x    frame=  404 fps=2.7 q=-0.0 size=   24917kB time=00:00:16.79 bitrate=12155.1kbits/s speed=0.114x    frame=  406 fps=2.7 q=-0.0 size=   24917kB time=00:00:16.87 bitrate=12095.3kbits/s speed=0.114x    frame=  408 fps=2.7 q=-0.0 size=   24917kB time=00:00:16.95 bitrate=12036.1kbits/s speed=0.114x    frame=  410 fps=2.7 q=-0.0 size=   24917kB time=00:00:17.04 bitrate=11976.8kbits/s speed=0.114x    frame=  413 fps=2.7 q=-0.0 size=   25560kB time=00:00:17.16 bitrate=12196.3kbits/s speed=0.114x    frame=  415 fps=2.7 q=-0.0 size=   25560kB time=00:00:17.25 bitrate=12137.7kbits/s speed=0.114x    frame=  417 fps=2.7 q=-0.0 size=   25560kB time=00:00:17.33 bitrate=12079.5kbits/s speed=0.114x    frame=  419 fps=2.7 q=-0.0 size=   25947kB time=00:00:17.41 bitrate=12203.6kbits/s speed=0.114x    frame=  420 fps=2.7 q=-0.0 size=   25947kB time=00:00:17.45 bitrate=12174.9kbits/s speed=0.114x    frame=  422 fps=2.7 q=-0.0 size=   25947kB time=00:00:17.54 bitrate=12116.6kbits/s speed=0.114x    frame=  424 fps=2.7 q=-0.0 size=   25947kB time=00:00:17.62 bitrate=12059.6kbits/s speed=0.114x    frame=  426 fps=2.7 q=-0.0 size=   25947kB time=00:00:17.70 bitrate=12003.0kbits/s speed=0.114x    frame=  428 fps=2.7 q=-0.0 size=   25947kB time=00:00:17.79 bitrate=11946.4kbits/s speed=0.114x    frame=  430 fps=2.7 q=-0.0 size=   25947kB time=00:00:17.87 bitrate=11890.9kbits/s speed=0.114x    frame=  433 fps=2.8 q=-0.0 size=   26870kB time=00:00:18.00 bitrate=12228.1kbits/s speed=0.114x    frame=  435 fps=2.8 q=-0.0 size=   26870kB time=00:00:18.08 bitrate=12172.0kbits/s speed=0.114x    frame=  437 fps=2.8 q=-0.0 size=   26870kB time=00:00:18.16 bitrate=12115.7kbits/s speed=0.115x    frame=  439 fps=2.8 q=-0.0 size=   26870kB time=00:00:18.25 bitrate=12060.6kbits/s speed=0.115x    frame=  441 fps=2.8 q=-0.0 size=   26870kB time=00:00:18.33 bitrate=12006.0kbits/s speed=0.114x    frame=  443 fps=2.8 q=-0.0 size=   27382kB time=00:00:18.41 bitrate=12179.1kbits/s speed=0.114x    frame=  445 fps=2.8 q=-0.0 size=   27382kB time=00:00:18.50 bitrate=12124.5kbits/s speed=0.115x    frame=  447 fps=2.8 q=-0.0 size=   27382kB time=00:00:18.58 bitrate=12070.4kbits/s speed=0.115x    frame=  449 fps=2.8 q=-0.0 size=   27382kB time=00:00:18.66 bitrate=12016.0kbits/s speed=0.115x    frame=  451 fps=2.8 q=-0.0 size=   27382kB time=00:00:18.75 bitrate=11962.8kbits/s speed=0.115x    frame=  453 fps=2.8 q=-0.0 size=   27382kB time=00:00:18.83 bitrate=11910.1kbits/s speed=0.115x    frame=  455 fps=2.8 q=-0.0 size=   28120kB time=00:00:18.91 bitrate=12176.8kbits/s speed=0.115x    frame=  457 fps=2.8 q=-0.0 size=   28120kB time=00:00:19.00 bitrate=12123.7kbits/s speed=0.115x    frame=  459 fps=2.8 q=-0.0 size=   28120kB time=00:00:19.08 bitrate=12070.9kbits/s speed=0.115x    frame=  461 fps=2.8 q=-0.0 size=   28120kB time=00:00:19.16 bitrate=12018.0kbits/s speed=0.115x    frame=  463 fps=2.8 q=-0.0 size=   28120kB time=00:00:19.25 bitrate=11966.2kbits/s speed=0.115x    frame=  465 fps=2.8 q=-0.0 size=   28120kB time=00:00:19.33 bitrate=11914.8kbits/s speed=0.115x    frame=  467 fps=2.8 q=-0.0 size=   28822kB time=00:00:19.41 bitrate=12159.4kbits/s speed=0.115x    frame=  469 fps=2.8 q=-0.0 size=   28822kB time=00:00:19.50 bitrate=12107.6kbits/s speed=0.115x    frame=  471 fps=2.8 q=-0.0 size=   28822kB time=00:00:19.58 bitrate=12056.3kbits/s speed=0.115x    frame=  473 fps=2.8 q=-0.0 size=   28822kB time=00:00:19.66 bitrate=12004.8kbits/s speed=0.115x    frame=  475 fps=2.8 q=-0.0 size=   28822kB time=00:00:19.75 bitrate=11954.4kbits/s speed=0.115x    frame=  477 fps=2.8 q=-0.0 size=   28822kB time=00:00:19.83 bitrate=11904.4kbits/s speed=0.115x    frame=  479 fps=2.8 q=-0.0 size=   29528kB time=00:00:19.91 bitrate=12144.6kbits/s speed=0.115x    frame=  481 fps=2.8 q=-0.0 size=   29528kB time=00:00:20.00 bitrate=12094.2kbits/s speed=0.115x    frame=  483 fps=2.8 q=-0.0 size=   29528kB time=00:00:20.08 bitrate=12044.2kbits/s speed=0.115x    frame=  485 fps=2.8 q=-0.0 size=   29528kB time=00:00:20.16 bitrate=11994.1kbits/s speed=0.115x    frame=  487 fps=2.8 q=-0.0 size=   29528kB time=00:00:20.25 bitrate=11944.9kbits/s speed=0.115x    frame=  489 fps=2.8 q=-0.0 size=   29528kB time=00:00:20.33 bitrate=11896.1kbits/s speed=0.115x    frame=  491 fps=2.8 q=-0.0 size=   30169kB time=00:00:20.41 bitrate=12104.3kbits/s speed=0.115x    frame=  493 fps=2.8 q=-0.0 size=   30169kB time=00:00:20.50 bitrate=12055.2kbits/s speed=0.115x    frame=  495 fps=2.8 q=-0.0 size=   30169kB time=00:00:20.58 bitrate=12006.6kbits/s speed=0.115x    frame=  497 fps=2.8 q=-0.0 size=   30169kB time=00:00:20.66 bitrate=11957.8kbits/s speed=0.115x    frame=  499 fps=2.8 q=-0.0 size=   30169kB time=00:00:20.75 bitrate=11910.0kbits/s speed=0.115x    frame=  500 fps=2.8 q=-0.0 size=   30169kB time=00:00:20.79 bitrate=11886.0kbits/s speed=0.115x    frame=  500 fps=2.8 q=-0.0 Lsize=   30857kB time=00:00:20.79 bitrate=12156.9kbits/s speed=0.115x    
video:30844kB audio:0kB subtitle:0kB other streams:0kB global headers:3kB muxing overhead: 0.040967%
bench: utime=160.156s
bench: maxrss=261192kB
